<svg width="18" height="18" viewBox="0 0 18 18" fill="none" xmlns="http://www.w3.org/2000/svg">
<path fill-rule="evenodd" clip-rule="evenodd" d="M9 1.63636C4.93318 1.63636 1.63636 4.93318 1.63636 9C1.63636 13.0668 4.93318 16.3636 9 16.3636C13.0668 16.3636 16.3636 13.0668 16.3636 9C16.3636 4.93318 13.0668 1.63636 9 1.63636ZM0 9C0 4.02944 4.02944 0 9 0C13.9706 0 18 4.02944 18 9C18 13.9706 13.9706 18 9 18C4.02944 18 0 13.9706 0 9ZM9 4.90909C9.45187 4.90909 9.81818 5.2754 9.81818 5.72727V9C9.81818 9.45187 9.45187 9.81818 9 9.81818C8.54813 9.81818 8.18182 9.45187 8.18182 9V5.72727C8.18182 5.2754 8.54813 4.90909 9 4.90909ZM8.18182 12.2727C8.18182 11.8209 8.54813 11.4545 9 11.4545H9.00818C9.46005 11.4545 9.82636 11.8209 9.82636 12.2727C9.82636 12.7246 9.46005 13.0909 9.00818 13.0909H9C8.54813 13.0909 8.18182 12.7246 8.18182 12.2727Z" fill="white"/>
</svg>
